<mxGraphModel><root><mxCell id="0"/><mxCell id="1" parent="0"/><mxCell id="2" value="Primitive Types" style="whiteSpace=wrap;strokeWidth=2;" vertex="1" parent="1"><mxGeometry x="127" y="8" width="168" height="54" as="geometry"/></mxCell><mxCell id="3" value="Strings" style="whiteSpace=wrap;strokeWidth=2;" vertex="1" parent="1"><mxGeometry x="8" y="112" width="108" height="54" as="geometry"/></mxCell><mxCell id="4" value="Bool" style="whiteSpace=wrap;strokeWidth=2;" vertex="1" parent="1"><mxGeometry x="166" y="112" width="91" height="54" as="geometry"/></mxCell><mxCell id="5" value="Numbers" style="whiteSpace=wrap;strokeWidth=2;" vertex="1" parent="1"><mxGeometry x="307" y="112" width="123" height="54" as="geometry"/></mxCell><mxCell id="6" value="Int" style="whiteSpace=wrap;strokeWidth=2;" vertex="1" parent="1"><mxGeometry x="260" y="216" width="80" height="54" as="geometry"/></mxCell><mxCell id="7" value="Float" style="whiteSpace=wrap;strokeWidth=2;" vertex="1" parent="1"><mxGeometry x="389" y="216" width="96" height="54" as="geometry"/></mxCell><mxCell id="8" value="" style="curved=1;startArrow=none;endArrow=block;exitX=0.04;exitY=1;entryX=0.5;entryY=0;" edge="1" parent="1" source="2" target="3"><mxGeometry relative="1" as="geometry"><Array as="points"><mxPoint x="62" y="87"/></Array></mxGeometry></mxCell><mxCell id="9" value="" style="curved=1;startArrow=none;endArrow=block;exitX=0.5;exitY=1;entryX=0.5;entryY=0;" edge="1" parent="1" source="2" target="4"><mxGeometry relative="1" as="geometry"><Array as="points"/></mxGeometry></mxCell><mxCell id="10" value="" style="curved=1;startArrow=none;endArrow=block;exitX=0.99;exitY=1;entryX=0.5;entryY=0;" edge="1" parent="1" source="2" target="5"><mxGeometry relative="1" as="geometry"><Array as="points"><mxPoint x="368" y="87"/></Array></mxGeometry></mxCell><mxCell id="11" value="" style="curved=1;startArrow=none;endArrow=block;exitX=0.21;exitY=1;entryX=0.49;entryY=0;" edge="1" parent="1" source="5" target="6"><mxGeometry relative="1" as="geometry"><Array as="points"><mxPoint x="299" y="191"/></Array></mxGeometry></mxCell><mxCell id="12" value="" style="curved=1;startArrow=none;endArrow=block;exitX=0.79;exitY=1;entryX=0.5;entryY=0;" edge="1" parent="1" source="5" target="7"><mxGeometry relative="1" as="geometry"><Array as="points"><mxPoint x="437" y="191"/></Array></mxGeometry></mxCell></root></mxGraphModel>